<svg width="51" height="52" viewBox="0 0 51 52" fill="none" xmlns="http://www.w3.org/2000/svg">
<g filter="url(#filter0_i_68_334)">
<path d="M20.3326 26.0532C20.3426 23.0482 20.3526 20.0432 20.3626 17.0382C20.3576 16.7794 20.3376 14.7044 21.5602 13.6932C21.9032 13.4094 22.3087 13.2332 22.3087 13.2332C23.1083 12.8844 23.8481 12.9594 24.1949 13.0182C22.2725 11.9432 21.0824 11.2619 20.3326 10.8282C20.2603 10.7869 19.5142 10.3544 18.5088 9.78441C17.8176 9.39316 17.4721 9.19691 17.245 9.07566C16.1784 8.51066 15.5609 8.18691 14.7138 7.96691C14.3608 7.87441 13.8543 7.77191 13.2218 7.73816C12.6193 7.68566 11.8645 7.72316 11.0874 8.03941C8.27922 9.18316 7.86629 12.8782 7.84758 13.0632C7.66669 14.1557 7.77398 15.0419 7.88376 15.5894C8.17193 17.0257 8.84434 17.9944 9.2136 18.5132C9.70387 19.2032 10.2116 19.7019 10.5908 20.0319C10.9663 20.3569 11.5152 20.8144 12.2039 21.3282C12.991 21.9157 13.9142 22.5394 15.9164 23.6832C17.0554 24.3332 18.5437 25.1519 20.3326 26.0532Z" fill="url(#paint0_linear_68_334)"/>
</g>
<g filter="url(#filter1_d_68_334)">
<path d="M44.1874 24.5795L20.3326 10.8283C19.5454 10.3783 18.7894 9.94701 17.9785 9.48326C17.9311 9.45576 17.4159 9.16327 16.7185 8.79827C16.0524 8.44952 15.7854 8.33202 15.5347 8.23452C15.0993 8.06577 14.7225 7.96577 14.4568 7.90452C14.2398 7.85827 13.9416 7.80327 13.5848 7.76452C13.1245 7.71577 12.7041 7.71327 12.4758 7.72577C11.4541 7.78077 10.4748 8.36452 10.103 8.60327C10.2178 8.51577 10.365 8.40577 10.5409 8.28327C10.8378 8.07702 11.0811 7.93077 11.2258 7.84452C12.3772 7.16327 17.2437 4.48452 20.1517 2.76327C20.98 2.27327 21.504 1.93702 22.3997 1.51827C23.8443 0.843265 24.9695 0.327016 26.3717 0.378266C27.0828 0.404516 27.7053 0.565766 28.359 0.817016C31.7472 2.12077 39.2023 7.08077 39.9122 7.55577C40.5159 7.88327 41.252 8.44077 42.0491 9.18577C43.117 10.1845 44.1861 11.5495 44.1861 13.0158V24.577L44.1874 24.5795Z" fill="#444648"/>
</g>
<g filter="url(#filter2_i_68_334)">
<path d="M31.605 24.407C31.595 27.412 31.585 30.417 31.575 33.422C31.58 33.6807 31.6 35.7557 30.3774 36.767C30.0343 37.0507 29.6289 37.227 29.6289 37.227C28.8293 37.5757 28.0895 37.5007 27.7427 37.442C29.6651 38.517 30.8552 39.1982 31.605 39.632C31.6773 39.6732 32.4233 40.1057 33.4288 40.6757C34.1199 41.067 34.4655 41.2632 34.6925 41.3845C35.7591 41.9495 36.3767 42.2732 37.2237 42.4932C37.5768 42.5857 38.0832 42.6882 38.7157 42.722C39.3183 42.7745 40.073 42.737 40.8502 42.4207C43.6583 41.277 44.0713 37.582 44.09 37.397C44.2709 36.3045 44.1636 35.4182 44.0538 34.8707C43.7656 33.4345 43.0932 32.4657 42.724 31.947C42.2337 31.257 41.726 30.7582 41.3467 30.4282C40.9712 30.1032 40.4223 29.6457 39.7337 29.132C38.9465 28.5445 38.0234 27.9207 36.0211 26.777C34.8821 26.127 33.3939 25.3082 31.605 24.407Z" fill="url(#paint1_linear_68_334)"/>
</g>
<g filter="url(#filter3_d_68_334)">
<path d="M7.75 25.8821L31.6048 39.6333C32.392 40.0833 33.148 40.5146 33.9588 40.9783C34.0062 41.0058 34.5215 41.2983 35.2188 41.6633C35.885 42.0121 36.1519 42.1296 36.4027 42.2271C36.8381 42.3958 37.2148 42.4958 37.4805 42.5571C37.6976 42.6033 37.9958 42.6583 38.3525 42.6971C38.8328 42.7483 39.2545 42.7471 39.4616 42.7358C40.5145 42.6796 41.5524 42.0358 41.8955 41.8108C41.7695 41.9121 41.6435 42.0121 41.5187 42.1133C40.9511 42.4596 40.3822 42.8046 39.8146 43.1508C35.5507 45.3521 33.1841 46.7758 31.7869 47.6983C31.7607 47.7158 30.86 48.3258 29.5389 48.9433C28.0943 49.6183 26.9691 50.1346 25.5669 50.0833C24.8558 50.0571 24.2333 49.8958 23.5796 49.6446C20.1914 48.3408 12.7363 43.3808 12.0264 42.9058C11.4227 42.5783 10.6866 42.0208 9.88947 41.2758C8.82161 40.2771 7.7525 38.9121 7.7525 37.4458V25.8846L7.75 25.8821Z" fill="#444648"/>
</g>
<defs>
<filter id="filter0_i_68_334" x="7.75049" y="7.71851" width="16.4443" height="18.8347" filterUnits="userSpaceOnUse" color-interpolation-filters="sRGB">
<feFlood flood-opacity="0" result="BackgroundImageFix"/>
<feBlend mode="normal" in="SourceGraphic" in2="BackgroundImageFix" result="shape"/>
<feColorMatrix in="SourceAlpha" type="matrix" values="0 0 0 0 0 0 0 0 0 0 0 0 0 0 0 0 0 0 127 0" result="hardAlpha"/>
<feOffset dy="0.5"/>
<feGaussianBlur stdDeviation="0.25"/>
<feComposite in2="hardAlpha" operator="arithmetic" k2="-1" k3="1"/>
<feColorMatrix type="matrix" values="0 0 0 0 0 0 0 0 0 0 0 0 0 0 0 0 0 0 0.25 0"/>
<feBlend mode="normal" in2="shape" result="effect1_innerShadow_68_334"/>
</filter>
<filter id="filter1_d_68_334" x="9.60303" y="0.374756" width="35.0845" height="25.2048" filterUnits="userSpaceOnUse" color-interpolation-filters="sRGB">
<feFlood flood-opacity="0" result="BackgroundImageFix"/>
<feColorMatrix in="SourceAlpha" type="matrix" values="0 0 0 0 0 0 0 0 0 0 0 0 0 0 0 0 0 0 127 0" result="hardAlpha"/>
<feOffset dy="0.5"/>
<feGaussianBlur stdDeviation="0.25"/>
<feComposite in2="hardAlpha" operator="out"/>
<feColorMatrix type="matrix" values="0 0 0 0 0 0 0 0 0 0 0 0 0 0 0 0 0 0 0.25 0"/>
<feBlend mode="normal" in2="BackgroundImageFix" result="effect1_dropShadow_68_334"/>
<feBlend mode="normal" in="SourceGraphic" in2="effect1_dropShadow_68_334" result="shape"/>
</filter>
<filter id="filter2_i_68_334" x="27.7427" y="24.407" width="16.4443" height="18.8347" filterUnits="userSpaceOnUse" color-interpolation-filters="sRGB">
<feFlood flood-opacity="0" result="BackgroundImageFix"/>
<feBlend mode="normal" in="SourceGraphic" in2="BackgroundImageFix" result="shape"/>
<feColorMatrix in="SourceAlpha" type="matrix" values="0 0 0 0 0 0 0 0 0 0 0 0 0 0 0 0 0 0 127 0" result="hardAlpha"/>
<feOffset dy="0.5"/>
<feGaussianBlur stdDeviation="0.25"/>
<feComposite in2="hardAlpha" operator="arithmetic" k2="-1" k3="1"/>
<feColorMatrix type="matrix" values="0 0 0 0 0 0 0 0 0 0 0 0 0 0 0 0 0 0 0.25 0"/>
<feBlend mode="normal" in2="shape" result="effect1_innerShadow_68_334"/>
</filter>
<filter id="filter3_d_68_334" x="7.25" y="25.8821" width="35.1455" height="25.2048" filterUnits="userSpaceOnUse" color-interpolation-filters="sRGB">
<feFlood flood-opacity="0" result="BackgroundImageFix"/>
<feColorMatrix in="SourceAlpha" type="matrix" values="0 0 0 0 0 0 0 0 0 0 0 0 0 0 0 0 0 0 127 0" result="hardAlpha"/>
<feOffset dy="0.5"/>
<feGaussianBlur stdDeviation="0.25"/>
<feComposite in2="hardAlpha" operator="out"/>
<feColorMatrix type="matrix" values="0 0 0 0 0 0 0 0 0 0 0 0 0 0 0 0 0 0 0.25 0"/>
<feBlend mode="normal" in2="BackgroundImageFix" result="effect1_dropShadow_68_334"/>
<feBlend mode="normal" in="SourceGraphic" in2="effect1_dropShadow_68_334" result="shape"/>
</filter>
<linearGradient id="paint0_linear_68_334" x1="24.2503" y1="25.9996" x2="7.75028" y2="7.74965" gradientUnits="userSpaceOnUse">
<stop offset="0.365" stop-color="#006C3E"/>
<stop offset="0.705" stop-color="#009656"/>
<stop offset="1" stop-color="#00A05C"/>
</linearGradient>
<linearGradient id="paint1_linear_68_334" x1="44.1252" y1="42.7497" x2="27.7502" y2="24.3747" gradientUnits="userSpaceOnUse">
<stop offset="0.4" stop-color="#006C3E"/>
<stop offset="0.74" stop-color="#009656"/>
<stop offset="1" stop-color="#00A05C"/>
</linearGradient>
</defs>
</svg>
