<svg width="305" height="105" viewBox="0 0 305 105" fill="none" xmlns="http://www.w3.org/2000/svg">
<g filter="url(#filter0_i_25_1527)">
<path d="M31.7161 52.0247C31.7323 47.1474 31.7485 42.2701 31.7647 37.3928C31.7566 36.9728 31.7242 33.605 33.7085 31.9637C34.2653 31.5031 34.9234 31.2171 34.9234 31.2171C36.2212 30.651 37.4219 30.7727 37.9848 30.8681C34.8646 29.1233 32.933 28.0176 31.7161 27.3136C31.5987 27.2467 30.3879 26.5447 28.7559 25.6195C27.6342 24.9845 27.0733 24.666 26.7048 24.4692C24.9736 23.5522 23.9714 23.0267 22.5965 22.6696C22.0235 22.5195 21.2015 22.3531 20.1749 22.2984C19.1969 22.2132 17.972 22.274 16.7105 22.7873C12.1528 24.6437 11.4826 30.6409 11.4522 30.9411C11.1586 32.7143 11.3327 34.1528 11.5109 35.0414C11.9786 37.3725 13.07 38.9448 13.6693 39.7868C14.4651 40.9067 15.2891 41.7162 15.9047 42.2518C16.5141 42.7793 17.405 43.5219 18.5227 44.3557C19.8003 45.3093 21.2987 46.3216 24.5484 48.178C26.397 49.233 28.8126 50.5619 31.7161 52.0247Z" fill="url(#paint0_linear_25_1527)"/>
</g>
<g filter="url(#filter1_d_25_1527)">
<path d="M70.4334 49.6328L31.7157 27.3137C30.4381 26.5834 29.2111 25.8834 27.895 25.1307C27.818 25.0861 26.9818 24.6113 25.8499 24.0189C24.7687 23.4529 24.3354 23.2622 23.9284 23.1039C23.2218 22.83 22.6103 22.6677 22.179 22.5683C21.8267 22.4932 21.3428 22.404 20.7637 22.3411C20.0166 22.262 19.3342 22.2579 18.9637 22.2782C17.3054 22.3675 15.716 23.3149 15.1126 23.7024C15.2989 23.5604 15.5378 23.3819 15.8233 23.183C16.3052 22.8483 16.7 22.6109 16.9349 22.4709C18.8037 21.3652 26.7024 17.0175 31.4221 14.2238C32.7666 13.4285 33.617 12.8827 35.0708 12.2031C37.4155 11.1075 39.2418 10.2696 41.5176 10.3528C42.6718 10.3954 43.6821 10.6571 44.7431 11.0649C50.2424 13.181 62.3424 21.2313 63.4945 22.0023C64.4745 22.5338 65.6691 23.4387 66.963 24.6479C68.6962 26.2689 70.4314 28.4844 70.4314 30.8642V49.6287L70.4334 49.6328Z" fill="#444648"/>
</g>
<g filter="url(#filter2_i_25_1527)">
<path d="M50.0113 49.3528C49.9951 54.2301 49.9789 59.1074 49.9627 63.9847C49.9708 64.4047 50.0031 67.7725 48.0189 69.4138C47.4621 69.8744 46.804 70.1604 46.804 70.1604C45.5061 70.7265 44.3054 70.6048 43.7426 70.5094C46.8627 72.2542 48.7944 73.3599 50.0113 74.0639C50.1287 74.1309 51.3395 74.8328 52.9715 75.758C54.0932 76.393 54.6541 76.7115 55.0226 76.9083C56.7537 77.8253 57.756 78.3508 59.1308 78.7079C59.7038 78.858 60.5259 79.0244 61.5525 79.0791C62.5304 79.1644 63.7554 79.1035 65.0168 78.5902C69.5746 76.7338 70.2448 70.7366 70.2752 70.4364C70.5688 68.6632 70.3946 67.2247 70.2165 66.3361C69.7487 64.005 68.6574 62.4327 68.0581 61.5907C67.2623 60.4708 66.4382 59.6613 65.8227 59.1257C65.2132 58.5982 64.3223 57.8556 63.2047 57.0218C61.927 56.0682 60.4287 55.0559 57.1789 53.1995C55.3303 52.1445 52.9148 50.8156 50.0113 49.3528Z" fill="url(#paint1_linear_25_1527)"/>
</g>
<g filter="url(#filter3_d_25_1527)">
<path d="M11.294 51.747L50.0117 74.066C51.2894 74.7964 52.5164 75.4964 53.8325 76.2491C53.9094 76.2937 54.7456 76.7684 55.8775 77.3609C56.9587 77.9269 57.392 78.1176 57.799 78.2759C58.5056 78.5497 59.1171 78.7121 59.5484 78.8115C59.9007 78.8865 60.3846 78.9758 60.9637 79.0387C61.7433 79.1219 62.4276 79.1198 62.7637 79.1016C64.4727 79.0103 66.1573 77.9654 66.7141 77.6003C66.5096 77.7646 66.3051 77.9269 66.1026 78.0912C65.1813 78.6532 64.258 79.2132 63.3368 79.7752C56.4161 83.3479 52.5751 85.6587 50.3073 87.156C50.2648 87.1844 48.8029 88.1745 46.6587 89.1767C44.314 90.2723 42.4877 91.1102 40.2118 91.027C39.0577 90.9844 38.0473 90.7227 36.9864 90.3149C31.4871 88.1988 19.387 80.1485 18.2349 79.3775C17.255 78.846 16.0603 77.9411 14.7665 76.7319C13.0333 75.1109 11.2981 72.8954 11.2981 70.5156V51.751L11.294 51.747Z" fill="#444648"/>
</g>
<g filter="url(#filter4_i_25_1527)">
<path d="M251.024 32.198C252.015 32.198 252.857 32.5529 253.551 33.2629C254.26 33.9563 254.615 34.7984 254.615 35.789C254.615 36.7797 254.26 37.63 253.551 38.3399C252.857 39.0334 252.015 39.3801 251.024 39.3801C250.034 39.3801 249.183 39.0334 248.473 38.3399C247.78 37.63 247.433 36.7797 247.433 35.789C247.433 34.7984 247.78 33.9563 248.473 33.2629C249.183 32.5529 250.034 32.198 251.024 32.198ZM247.83 69.0001V47.5528H244.437V42.4758H254.095V69.0001H247.83ZM276.112 37.275C274.758 36.8292 273.718 36.6063 272.992 36.6063C271.819 36.6063 270.821 37.1099 269.995 38.117C269.186 39.1242 268.782 40.3625 268.782 41.8319C268.782 42.0465 268.79 42.2612 268.806 42.4758H274.304V47.5776H268.905V69.0001H262.714V47.5776H258.85V42.4758H262.739C262.871 39.2232 263.828 36.598 265.611 34.6003C267.411 32.6025 269.731 31.6036 272.571 31.6036C274.04 31.6036 275.832 31.9255 277.945 32.5695L276.112 37.275ZM291.839 73.2598C291.178 75.0265 289.758 76.4876 287.579 77.6434C285.416 78.8156 282.89 79.4018 280 79.4018V73.9285C284.772 73.9285 287.158 72.7315 287.158 70.3374C287.158 68.7524 286.497 66.3254 285.177 63.0563L276.88 42.4758H283.294L290.526 60.8026L297.039 42.4758H303.454L291.839 73.2598Z" fill="url(#paint2_linear_25_1527)"/>
</g>
<path d="M83.4728 66.994L85.8503 61.2236C88.3929 63.0067 90.8943 63.8983 93.3543 63.8983C97.1353 63.8983 99.0257 62.5774 99.0257 59.9357C99.0257 58.6974 98.58 57.5169 97.6884 56.3942C96.7968 55.2715 94.9559 54.0167 92.1656 52.6298C89.3918 51.2264 87.5179 50.0789 86.5437 49.1873C85.5861 48.2792 84.8431 47.2061 84.3148 45.9678C83.803 44.7295 83.5471 43.3591 83.5471 41.8566C83.5471 39.0498 84.5707 36.7218 86.618 34.8726C88.6819 33.0235 91.3235 32.0989 94.5431 32.0989C98.7368 32.0989 101.816 32.8831 103.781 34.4516L101.824 39.9992C99.5623 38.3811 97.1766 37.5721 94.6669 37.5721C93.181 37.5721 92.0252 37.9684 91.1997 38.7609C90.3907 39.5369 89.9862 40.5523 89.9862 41.8071C89.9862 43.8874 92.2894 46.0503 96.8959 48.2958C99.3229 49.4845 101.073 50.5825 102.146 51.5896C103.219 52.5803 104.037 53.7443 104.598 55.0816C105.159 56.4025 105.44 57.8802 105.44 59.5147C105.44 62.4536 104.276 64.8724 101.948 66.7711C99.6366 68.6698 96.5326 69.6192 92.6361 69.6192C89.2515 69.6192 86.197 68.7441 83.4728 66.994ZM115.644 32.1979C116.634 32.1979 117.476 32.5529 118.17 33.2629C118.88 33.9563 119.235 34.7983 119.235 35.789C119.235 36.7796 118.88 37.6299 118.17 38.3399C117.476 39.0333 116.634 39.38 115.644 39.38C114.653 39.38 113.803 39.0333 113.093 38.3399C112.399 37.6299 112.053 36.7796 112.053 35.789C112.053 34.7983 112.399 33.9563 113.093 33.2629C113.803 32.5529 114.653 32.1979 115.644 32.1979ZM112.449 69V47.5528H109.056V42.4758H118.715V69H112.449ZM156.656 69V52.3821C156.656 48.8984 155.096 47.1565 151.975 47.1565C151.051 47.1565 150.159 47.429 149.301 47.9738C148.442 48.5187 147.839 49.1461 147.493 49.856V69H141.301V51.4163C141.301 50.1119 140.897 49.08 140.088 48.3205C139.279 47.5445 138.139 47.1565 136.67 47.1565C135.894 47.1565 135.044 47.4455 134.119 48.0233C133.211 48.6012 132.551 49.2369 132.138 49.9303V69H125.946V42.4758H130.206L131.469 44.8038C133.186 42.9216 135.407 41.9805 138.131 41.9805C141.648 41.9805 144.298 42.9381 146.081 44.8533C146.857 43.9782 147.938 43.2848 149.325 42.773C150.712 42.2446 152.099 41.9805 153.486 41.9805C156.441 41.9805 158.736 42.8307 160.371 44.5313C162.022 46.2154 162.847 48.5352 162.847 51.4906V69H156.656ZM175.23 68.3314V79.4017H169.039V42.4758H175.23V44.2589C176.782 42.7399 178.689 41.9805 180.951 41.9805C189.405 41.9805 193.631 46.6364 193.631 55.9484C193.631 60.2907 192.459 63.6341 190.115 65.9786C187.787 68.3231 184.6 69.4954 180.555 69.4954C178.607 69.4954 176.832 69.1074 175.23 68.3314ZM175.23 48.9644V62.9076C176.353 63.8157 177.666 64.2698 179.168 64.2698C182.025 64.2698 184.072 63.5928 185.31 62.239C186.565 60.8686 187.192 58.7139 187.192 55.7751C187.192 52.638 186.573 50.4339 185.335 49.1626C184.097 47.8747 182.049 47.2308 179.193 47.2308C177.707 47.2308 176.386 47.8087 175.23 48.9644ZM204.801 68.3314V79.4017H198.609V42.4758H204.801V44.2589C206.353 42.7399 208.26 41.9805 210.522 41.9805C218.975 41.9805 223.202 46.6364 223.202 55.9484C223.202 60.2907 222.03 63.6341 219.685 65.9786C217.357 68.3231 214.171 69.4954 210.126 69.4954C208.177 69.4954 206.402 69.1074 204.801 68.3314ZM204.801 48.9644V62.9076C205.924 63.8157 207.236 64.2698 208.739 64.2698C211.595 64.2698 213.642 63.5928 214.881 62.239C216.135 60.8686 216.763 58.7139 216.763 55.7751C216.763 52.638 216.144 50.4339 214.905 49.1626C213.667 47.8747 211.62 47.2308 208.763 47.2308C207.277 47.2308 205.957 47.8087 204.801 48.9644ZM229.74 32.5942L235.932 31.1082V60.9264C235.932 64.1955 236.906 66.1437 238.854 66.7711C237.896 68.5873 236.262 69.4954 233.95 69.4954C231.144 69.4954 229.74 67.5471 229.74 63.6506V32.5942Z" fill="#444648"/>
<defs>
<filter id="filter0_i_25_1527" x="11.2946" y="22.2665" width="26.6902" height="30.5697" filterUnits="userSpaceOnUse" color-interpolation-filters="sRGB">
<feFlood flood-opacity="0" result="BackgroundImageFix"/>
<feBlend mode="normal" in="SourceGraphic" in2="BackgroundImageFix" result="shape"/>
<feColorMatrix in="SourceAlpha" type="matrix" values="0 0 0 0 0 0 0 0 0 0 0 0 0 0 0 0 0 0 127 0" result="hardAlpha"/>
<feOffset dy="0.811529"/>
<feGaussianBlur stdDeviation="0.405764"/>
<feComposite in2="hardAlpha" operator="arithmetic" k2="-1" k3="1"/>
<feColorMatrix type="matrix" values="0 0 0 0 0 0 0 0 0 0 0 0 0 0 0 0 0 0 0.25 0"/>
<feBlend mode="normal" in2="shape" result="effect1_innerShadow_25_1527"/>
</filter>
<filter id="filter1_d_25_1527" x="14.3011" y="10.3471" width="56.9439" height="40.9088" filterUnits="userSpaceOnUse" color-interpolation-filters="sRGB">
<feFlood flood-opacity="0" result="BackgroundImageFix"/>
<feColorMatrix in="SourceAlpha" type="matrix" values="0 0 0 0 0 0 0 0 0 0 0 0 0 0 0 0 0 0 127 0" result="hardAlpha"/>
<feOffset dy="0.811529"/>
<feGaussianBlur stdDeviation="0.405764"/>
<feComposite in2="hardAlpha" operator="out"/>
<feColorMatrix type="matrix" values="0 0 0 0 0 0 0 0 0 0 0 0 0 0 0 0 0 0 0.25 0"/>
<feBlend mode="normal" in2="BackgroundImageFix" result="effect1_dropShadow_25_1527"/>
<feBlend mode="normal" in="SourceGraphic" in2="effect1_dropShadow_25_1527" result="shape"/>
</filter>
<filter id="filter2_i_25_1527" x="43.7426" y="49.3528" width="26.6902" height="30.5697" filterUnits="userSpaceOnUse" color-interpolation-filters="sRGB">
<feFlood flood-opacity="0" result="BackgroundImageFix"/>
<feBlend mode="normal" in="SourceGraphic" in2="BackgroundImageFix" result="shape"/>
<feColorMatrix in="SourceAlpha" type="matrix" values="0 0 0 0 0 0 0 0 0 0 0 0 0 0 0 0 0 0 127 0" result="hardAlpha"/>
<feOffset dy="0.811529"/>
<feGaussianBlur stdDeviation="0.405764"/>
<feComposite in2="hardAlpha" operator="arithmetic" k2="-1" k3="1"/>
<feColorMatrix type="matrix" values="0 0 0 0 0 0 0 0 0 0 0 0 0 0 0 0 0 0 0.25 0"/>
<feBlend mode="normal" in2="shape" result="effect1_innerShadow_25_1527"/>
</filter>
<filter id="filter3_d_25_1527" x="10.4825" y="51.747" width="57.0431" height="40.9088" filterUnits="userSpaceOnUse" color-interpolation-filters="sRGB">
<feFlood flood-opacity="0" result="BackgroundImageFix"/>
<feColorMatrix in="SourceAlpha" type="matrix" values="0 0 0 0 0 0 0 0 0 0 0 0 0 0 0 0 0 0 127 0" result="hardAlpha"/>
<feOffset dy="0.811529"/>
<feGaussianBlur stdDeviation="0.405764"/>
<feComposite in2="hardAlpha" operator="out"/>
<feColorMatrix type="matrix" values="0 0 0 0 0 0 0 0 0 0 0 0 0 0 0 0 0 0 0.25 0"/>
<feBlend mode="normal" in2="BackgroundImageFix" result="effect1_dropShadow_25_1527"/>
<feBlend mode="normal" in="SourceGraphic" in2="effect1_dropShadow_25_1527" result="shape"/>
</filter>
<filter id="filter4_i_25_1527" x="244.437" y="31.6036" width="59.0172" height="48.6097" filterUnits="userSpaceOnUse" color-interpolation-filters="sRGB">
<feFlood flood-opacity="0" result="BackgroundImageFix"/>
<feBlend mode="normal" in="SourceGraphic" in2="BackgroundImageFix" result="shape"/>
<feColorMatrix in="SourceAlpha" type="matrix" values="0 0 0 0 0 0 0 0 0 0 0 0 0 0 0 0 0 0 127 0" result="hardAlpha"/>
<feOffset dy="0.811529"/>
<feGaussianBlur stdDeviation="0.507205"/>
<feComposite in2="hardAlpha" operator="arithmetic" k2="-1" k3="1"/>
<feColorMatrix type="matrix" values="0 0 0 0 0 0 0 0 0 0 0 0 0 0 0 0 0 0 0.35 0"/>
<feBlend mode="normal" in2="shape" result="effect1_innerShadow_25_1527"/>
</filter>
<linearGradient id="paint0_linear_25_1527" x1="38.0747" y1="51.9378" x2="11.2943" y2="22.317" gradientUnits="userSpaceOnUse">
<stop offset="0.365" stop-color="#006C3E"/>
<stop offset="0.705" stop-color="#009656"/>
<stop offset="1" stop-color="#00A05C"/>
</linearGradient>
<linearGradient id="paint1_linear_25_1527" x1="70.3323" y1="79.1242" x2="43.7547" y2="49.3005" gradientUnits="userSpaceOnUse">
<stop offset="0.4" stop-color="#006C3E"/>
<stop offset="0.74" stop-color="#009656"/>
<stop offset="1" stop-color="#00A05C"/>
</linearGradient>
<linearGradient id="paint2_linear_25_1527" x1="280.113" y1="79.327" x2="244.608" y2="42.6054" gradientUnits="userSpaceOnUse">
<stop offset="0.501906" stop-color="#006C3E"/>
<stop offset="0.85" stop-color="#009656"/>
<stop offset="1" stop-color="#00A05C"/>
</linearGradient>
</defs>
</svg>
